<?xml version="1.0" standalone="no"?>
<!DOCTYPE svg PUBLIC "-//W3C//DTD SVG 20010904//EN"
 "http://www.w3.org/TR/2001/REC-SVG-20010904/DTD/svg10.dtd">
<svg version="1.0" xmlns="http://www.w3.org/2000/svg"
 width="564.000000pt" height="564.000000pt" viewBox="0 0 564.000000 564.000000"
 preserveAspectRatio="xMidYMid meet">

<g transform="translate(0.000000,564.000000) scale(0.100000,-0.100000)"
fill="#000000" stroke="none">
<path d="M2030 5033 c0 -10 21 -39 47 -65 26 -26 44 -50 41 -53 -2 -3 -48 17
-101 45 -142 73 -146 31 -5 -51 38 -22 68 -44 68 -49 0 -13 -1 -13 -115 15
-118 29 -105 28 -105 12 0 -18 66 -51 153 -77 103 -32 85 -53 -45 -51 -46 1
-78 -3 -78 -8 0 -20 46 -34 159 -47 144 -17 157 -27 94 -74 -83 -62 -86 -100
-5 -61 25 13 81 32 122 42 48 12 104 37 157 69 45 28 88 50 97 50 8 0 16 4 18
9 3 9 197 105 289 142 30 12 79 28 109 35 81 18 33 17 -234 -8 -201 -18 -251
-20 -308 -10 -38 7 -91 12 -119 12 -56 0 -77 12 -167 92 -56 51 -72 58 -72 31z"/>
<path d="M3103 4933 c9 -2 25 -2 35 0 9 3 1 5 -18 5 -19 0 -27 -2 -17 -5z"/>
<path d="M3300 4934 c45 -17 74 -24 64 -14 -5 5 -25 12 -44 15 -19 3 -28 3
-20 -1z"/>
<path d="M3380 4896 c0 -3 9 -10 20 -16 11 -6 20 -8 20 -6 0 3 -9 10 -20 16
-11 6 -20 8 -20 6z"/>
<path d="M3430 4856 c0 -2 8 -10 18 -17 15 -13 16 -12 3 4 -13 16 -21 21 -21
13z"/>
<path d="M3485 4800 c10 -11 20 -20 23 -20 3 0 -3 9 -13 20 -10 11 -20 20 -23
20 -3 0 3 -9 13 -20z"/>
<path d="M3540 4719 c0 -49 47 -378 66 -460 l16 -67 -87 -83 c-155 -148 -269
-323 -314 -476 -42 -146 -79 -383 -59 -383 14 0 189 165 252 237 148 172 252
446 233 616 -6 48 -5 50 8 27 l13 -25 6 25 c2 14 7 72 10 130 7 128 19 173 53
200 l26 20 -47 68 c-25 37 -75 99 -111 137 l-64 70 -1 -36z"/>
<path d="M2608 4733 c39 -2 105 -2 145 0 39 1 7 3 -73 3 -80 0 -112 -2 -72 -3z"/>
<path d="M2883 4723 c15 -2 39 -2 55 0 15 2 2 4 -28 4 -30 0 -43 -2 -27 -4z"/>
<path d="M3023 4713 c15 -2 37 -2 50 0 12 2 0 4 -28 4 -27 0 -38 -2 -22 -4z"/>
<path d="M3148 4703 c7 -3 16 -2 19 1 4 3 -2 6 -13 5 -11 0 -14 -3 -6 -6z"/>
<path d="M5171 4288 c-6 -18 -15 -63 -21 -100 -6 -37 -13 -74 -16 -82 -13 -33
12 -13 44 35 30 45 33 56 30 111 -3 69 -21 86 -37 36z"/>
<path d="M5263 4298 c-16 -20 -49 -125 -63 -200 -12 -59 -11 -74 4 -125 21
-71 16 -89 -49 -161 -26 -29 -63 -84 -81 -123 -55 -115 -115 -198 -228 -316
-106 -111 -162 -160 -172 -150 -3 3 -9 49 -15 102 -9 104 -23 136 -78 189 -28
27 -34 29 -59 19 -15 -6 -53 -20 -84 -30 -32 -10 -58 -21 -58 -25 0 -3 29 -29
64 -57 35 -28 97 -87 139 -131 42 -44 83 -80 92 -80 29 0 130 59 198 115 62
51 121 126 237 300 30 44 83 109 118 145 75 76 84 92 106 186 8 40 25 93 36
119 37 86 17 107 -25 26 -24 -49 -41 -68 -51 -58 -3 3 9 38 26 78 18 40 33 84
34 99 2 47 -19 31 -47 -37 -30 -71 -57 -110 -57 -83 0 8 10 54 22 102 14 60
18 92 11 99 -7 7 -13 6 -20 -3z"/>
<path d="M4533 4183 c15 -2 39 -2 55 0 15 2 2 4 -28 4 -30 0 -43 -2 -27 -4z"/>
<path d="M4630 4170 c8 -5 20 -10 25 -10 6 0 3 5 -5 10 -8 5 -19 10 -25 10 -5
0 -3 -5 5 -10z"/>
<path d="M4401 4131 c-17 -16 -31 -35 -31 -43 0 -7 5 -4 12 7 6 11 23 30 37
42 14 12 23 22 20 23 -4 0 -21 -13 -38 -29z"/>
<path d="M4710 4136 c0 -2 8 -10 18 -17 15 -13 16 -12 3 4 -13 16 -21 21 -21
13z"/>
<path d="M4751 4083 c7 -12 15 -20 18 -17 3 2 -3 12 -13 22 -17 16 -18 16 -5
-5z"/>
<path d="M4370 4051 c0 -6 4 -13 10 -16 6 -3 7 1 4 9 -7 18 -14 21 -14 7z"/>
<path d="M5105 4039 c-4 -6 -5 -12 -2 -15 2 -3 7 2 10 11 7 17 1 20 -8 4z"/>
<path d="M4396 3995 c8 -37 14 -45 14 -19 0 10 -5 26 -10 34 -8 11 -9 7 -4
-15z"/>
<path d="M4122 3982 c-22 -64 -105 -114 -213 -128 -55 -8 -129 14 -180 52
l-34 25 -3 -28 c-1 -15 -12 -89 -23 -163 -25 -157 -22 -244 10 -310 21 -46
143 -202 162 -208 5 -2 43 12 84 31 86 41 162 108 196 171 22 43 23 45 5 64
-26 29 -46 107 -46 176 1 76 30 150 94 240 39 54 44 66 28 66 -10 0 -28 9 -40
20 -27 26 -28 25 -40 -8z"/>
<path d="M5091 3994 c0 -11 3 -14 6 -6 3 7 2 16 -1 19 -3 4 -6 -2 -5 -13z"/>
<path d="M5083 3925 c0 -27 2 -38 4 -22 2 15 2 37 0 50 -2 12 -4 0 -4 -28z"/>
<path d="M4382 3889 c-12 -21 -21 -39 -18 -39 7 0 49 71 44 75 -2 2 -14 -14
-26 -36z"/>
<path d="M4811 3864 c0 -11 3 -14 6 -6 3 7 2 16 -1 19 -3 4 -6 -2 -5 -13z"/>
<path d="M5039 3773 c-13 -16 -12 -17 4 -4 16 13 21 21 13 21 -2 0 -10 -8 -17
-17z"/>
<path d="M4990 3735 c-11 -13 -10 -14 4 -9 9 3 16 10 16 15 0 13 -6 11 -20 -6z"/>
<path d="M4300 3726 c0 -8 4 -17 9 -20 5 -4 7 3 4 14 -6 23 -13 26 -13 6z"/>
<path d="M5040 3720 c-8 -5 -12 -12 -9 -15 4 -3 12 1 19 10 14 17 11 19 -10 5z"/>
<path d="M3596 3694 c-4 -14 -5 -28 -3 -31 3 -2 8 8 11 23 4 14 5 28 3 31 -3
2 -8 -8 -11 -23z"/>
<path d="M4748 3685 c-16 -18 -28 -36 -28 -40 0 -10 60 58 60 68 0 11 -3 8
-32 -28z"/>
<path d="M4944 3698 l-19 -23 23 19 c12 11 22 21 22 23 0 8 -8 2 -26 -19z"/>
<path d="M3185 3663 c-27 -23 -46 -61 -24 -47 5 3 7 10 4 15 -4 5 -3 9 2 9 12
1 70 50 58 50 -5 -1 -23 -12 -40 -27z"/>
<path d="M4237 3641 c-61 -68 -62 -76 -16 -90 23 -7 47 -15 55 -18 11 -4 14
10 14 71 0 42 -4 76 -9 76 -5 0 -25 -18 -44 -39z"/>
<path d="M4875 3649 c-50 -37 -68 -56 -40 -40 23 12 93 70 85 70 -3 0 -23 -13
-45 -30z"/>
<path d="M4979 3663 c-13 -16 -12 -17 4 -4 9 7 17 15 17 17 0 8 -8 3 -21 -13z"/>
<path d="M3582 3625 c0 -16 2 -22 5 -12 2 9 2 23 0 30 -3 6 -5 -1 -5 -18z"/>
<path d="M4690 3629 c0 -5 5 -7 10 -4 6 3 10 8 10 11 0 2 -4 4 -10 4 -5 0 -10
-5 -10 -11z"/>
<path d="M4900 3610 c-8 -5 -12 -12 -9 -15 4 -3 12 1 19 10 14 17 11 19 -10 5z"/>
<path d="M4608 3586 c-54 -32 -60 -42 -11 -17 23 11 44 25 48 31 8 13 7 13
-37 -14z"/>
<path d="M4746 3559 c-33 -21 -55 -39 -49 -39 12 0 101 58 109 71 8 13 5 12
-60 -32z"/>
<path d="M3085 3580 c-3 -6 1 -7 9 -4 18 7 21 14 7 14 -6 0 -13 -4 -16 -10z"/>
<path d="M3573 3550 c0 -25 2 -35 4 -22 2 12 2 32 0 45 -2 12 -4 2 -4 -23z"/>
<path d="M4854 3568 l-19 -23 23 19 c21 18 27 26 19 26 -2 0 -12 -10 -23 -22z"/>
<path d="M3036 3533 c-6 -14 -5 -15 5 -6 7 7 10 15 7 18 -3 3 -9 -2 -12 -12z"/>
<path d="M4792 3515 c-7 -8 -9 -15 -4 -15 5 0 15 7 22 15 16 19 -1 19 -18 0z"/>
<path d="M4766 3473 c-6 -14 -5 -15 5 -6 7 7 10 15 7 18 -3 3 -9 -2 -12 -12z"/>
<path d="M2983 3468 c-15 -20 -25 -38 -20 -38 3 0 12 11 21 25 17 26 16 35 -1
13z"/>
<path d="M3570 3429 c0 -19 4 -41 9 -48 6 -10 8 1 4 30 -7 55 -13 63 -13 18z"/>
<path d="M4740 3435 c-7 -9 -10 -18 -7 -21 3 -3 10 4 17 15 13 25 8 27 -10 6z"/>
<path d="M2926 3365 c-9 -26 -7 -32 5 -12 6 10 9 21 6 23 -2 3 -7 -2 -11 -11z"/>
<path d="M3609 3315 c5 -11 17 -29 26 -40 l16 -20 -10 20 c-5 11 -17 29 -26
40 l-16 20 10 -20z"/>
<path d="M4701 3274 c0 -11 3 -14 6 -6 3 7 2 16 -1 19 -3 4 -6 -2 -5 -13z"/>
<path d="M3141 3214 c0 -11 3 -14 6 -6 3 7 2 16 -1 19 -3 4 -6 -2 -5 -13z"/>
<path d="M2399 3203 c-13 -16 -12 -17 4 -4 16 13 21 21 13 21 -2 0 -10 -8 -17
-17z"/>
<path d="M3790 3200 c-8 -5 -10 -10 -5 -10 6 0 17 5 25 10 8 5 11 10 5 10 -5
0 -17 -5 -25 -10z"/>
<path d="M2354 3184 c-18 -14 -18 -15 4 -4 12 6 22 13 22 15 0 8 -5 6 -26 -11z"/>
<path d="M3748 3183 c7 -3 16 -2 19 1 4 3 -2 6 -13 5 -11 0 -14 -3 -6 -6z"/>
<path d="M2340 3140 c0 -5 5 -10 11 -10 5 0 7 5 4 10 -3 6 -8 10 -11 10 -2 0
-4 -4 -4 -10z"/>
<path d="M2892 3120 c0 -14 2 -19 5 -12 2 6 2 18 0 25 -3 6 -5 1 -5 -13z"/>
<path d="M2236 3093 c-6 -14 -5 -15 5 -6 7 7 10 15 7 18 -3 3 -9 -2 -12 -12z"/>
<path d="M2188 3043 c-8 -10 -19 -25 -23 -33 -8 -13 -7 -13 9 -1 16 14 41 51
33 51 -2 0 -11 -8 -19 -17z"/>
<path d="M2292 2910 c0 -19 2 -27 5 -17 2 9 2 25 0 35 -3 9 -5 1 -5 -18z"/>
<path d="M2131 2914 c0 -11 3 -14 6 -6 3 7 2 16 -1 19 -3 4 -6 -2 -5 -13z"/>
<path d="M2122 2870 c0 -14 2 -19 5 -12 2 6 2 18 0 25 -3 6 -5 1 -5 -13z"/>
<path d="M2123 2800 c0 -25 2 -35 4 -22 2 12 2 32 0 45 -2 12 -4 2 -4 -23z"/>
<path d="M2302 2815 c0 -16 2 -22 5 -12 2 9 2 23 0 30 -3 6 -5 -1 -5 -18z"/>
<path d="M2130 2746 c0 -2 8 -10 18 -17 15 -13 16 -12 3 4 -13 16 -21 21 -21
13z"/>
<path d="M2254 2636 c11 -9 24 -16 30 -16 12 0 7 5 -24 19 -24 11 -24 11 -6
-3z"/>
<path d="M2341 2606 c11 -9 69 -15 64 -6 -3 6 -20 10 -37 10 -17 0 -29 -2 -27
-4z"/>
<path d="M2400 2576 c0 -2 7 -7 16 -10 8 -3 12 -2 9 4 -6 10 -25 14 -25 6z"/>
<path d="M2358 2563 c6 -2 18 -2 25 0 6 3 1 5 -13 5 -14 0 -19 -2 -12 -5z"/>
<path d="M2308 2553 c7 -3 16 -2 19 1 4 3 -2 6 -13 5 -11 0 -14 -3 -6 -6z"/>
<path d="M2258 2543 c7 -3 16 -2 19 1 4 3 -2 6 -13 5 -11 0 -14 -3 -6 -6z"/>
<path d="M2208 2533 c6 -2 18 -2 25 0 6 3 1 5 -13 5 -14 0 -19 -2 -12 -5z"/>
<path d="M2450 2537 c0 -16 146 -137 165 -137 4 0 -12 14 -36 31 -24 17 -63
50 -86 72 -24 23 -43 38 -43 34z"/>
<path d="M2118 2513 c7 -3 16 -2 19 1 4 3 -2 6 -13 5 -11 0 -14 -3 -6 -6z"/>
<path d="M2028 2493 c6 -2 18 -2 25 0 6 3 1 5 -13 5 -14 0 -19 -2 -12 -5z"/>
<path d="M1935 2470 c-7 -12 2 -12 30 0 19 8 19 9 -2 9 -12 1 -25 -3 -28 -9z"/>
<path d="M1885 2450 c-16 -11 -25 -20 -20 -20 10 0 64 39 55 40 -3 0 -18 -9
-35 -20z"/>
<path d="M1789 2373 c-13 -16 -12 -17 4 -4 9 7 17 15 17 17 0 8 -8 3 -21 -13z"/>
<path d="M1748 2325 c-25 -34 -22 -43 3 -11 12 15 20 29 18 31 -2 1 -12 -7
-21 -20z"/>
<path d="M1680 2210 c-6 -11 -8 -20 -6 -20 3 0 10 9 16 20 6 11 8 20 6 20 -3
0 -10 -9 -16 -20z"/>
<path d="M1642 2142 l-23 -37 25 28 c14 15 26 32 26 38 0 15 -4 11 -28 -29z"/>
<path d="M1594 2085 c-10 -8 -14 -15 -8 -15 6 0 17 7 24 15 16 19 9 19 -16 0z"/>
<path d="M3616 2082 c-3 -5 1 -9 9 -9 8 0 12 4 9 9 -3 4 -7 8 -9 8 -2 0 -6 -4
-9 -8z"/>
<path d="M3693 1925 c0 -33 2 -45 4 -27 2 18 2 45 0 60 -2 15 -4 0 -4 -33z"/>
<path d="M1360 1927 c-81 -33 -144 -80 -240 -176 -83 -83 -248 -297 -237 -307
10 -11 223 58 291 94 81 42 179 129 206 182 18 36 42 119 54 193 8 44 3 45
-74 14z"/>
<path d="M2995 1914 c-79 -18 -215 -71 -278 -110 -44 -27 -107 -83 -107 -95 0
-3 37 -15 83 -25 62 -14 120 -18 237 -18 172 1 270 20 425 84 l78 33 -24 18
c-38 29 -149 85 -204 102 -78 25 -134 27 -210 11z"/>
<path d="M1850 1801 c0 -4 -21 -30 -47 -57 -35 -35 -39 -42 -17 -26 36 24 90
92 75 92 -6 0 -11 -4 -11 -9z"/>
<path d="M1700 1670 c-8 -5 -10 -10 -5 -10 6 0 17 5 25 10 8 5 11 10 5 10 -5
0 -17 -5 -25 -10z"/>
<path d="M1620 1640 c-18 -12 -2 -12 25 0 13 6 15 9 5 9 -8 0 -22 -4 -30 -9z"/>
<path d="M1525 1620 c-13 -6 -15 -9 -5 -9 8 0 22 4 30 9 18 12 2 12 -25 0z"/>
<path d="M2158 1563 c12 -2 30 -2 40 0 9 3 -1 5 -23 4 -22 0 -30 -2 -17 -4z"/>
<path d="M2078 1553 c7 -3 16 -2 19 1 4 3 -2 6 -13 5 -11 0 -14 -3 -6 -6z"/>
<path d="M2940 1550 c-20 -6 -21 -8 -5 -8 11 0 31 4 45 8 20 6 21 8 5 8 -11 0
-31 -4 -45 -8z"/>
<path d="M2015 1524 c-9 -15 -12 -23 -6 -20 11 7 35 46 28 46 -3 0 -12 -12
-22 -26z"/>
<path d="M2878 1533 c7 -3 16 -2 19 1 4 3 -2 6 -13 5 -11 0 -14 -3 -6 -6z"/>
<path d="M2808 1513 c7 -3 16 -2 19 1 4 3 -2 6 -13 5 -11 0 -14 -3 -6 -6z"/>
<path d="M1995 1479 c-13 -21 7 -86 61 -196 48 -97 58 -127 74 -227 21 -129
39 -165 128 -248 40 -38 58 -48 85 -48 19 0 40 6 46 14 15 18 11 75 -5 69 -7
-2 -27 21 -47 54 -19 32 -52 87 -74 123 -60 98 -118 219 -132 274 -19 77 -67
163 -100 181 -20 10 -32 11 -36 4z"/>
<path d="M2668 1473 c7 -3 16 -2 19 1 4 3 -2 6 -13 5 -11 0 -14 -3 -6 -6z"/>
<path d="M2465 1390 c-3 -5 -2 -10 4 -10 5 0 13 5 16 10 3 6 2 10 -4 10 -5 0
-13 -4 -16 -10z"/>
<path d="M2367 1243 c-4 -3 -7 -16 -6 -27 0 -19 1 -19 10 3 10 24 8 36 -4 24z"/>
<path d="M2343 1080 c0 -25 2 -35 4 -22 2 12 2 32 0 45 -2 12 -4 2 -4 -23z"/>
<path d="M2367 909 c4 -13 8 -18 11 -10 2 7 -1 18 -6 23 -8 8 -9 4 -5 -13z"/>
<path d="M300 908 c0 -9 7 -49 15 -88 11 -52 13 -102 9 -188 -7 -128 7 -215
47 -279 25 -39 108 -86 147 -81 25 3 24 5 -25 40 -71 51 -89 103 -107 306 -13
144 -17 163 -50 232 -19 41 -35 67 -36 58z"/>
<path d="M590 281 c0 -8 160 -4 168 4 4 3 -33 5 -81 4 -48 -1 -87 -4 -87 -8z"/>
<path d="M813 283 c9 -2 25 -2 35 0 9 3 1 5 -18 5 -19 0 -27 -2 -17 -5z"/>
<path d="M880 280 c0 -5 11 -10 24 -10 14 0 28 5 31 10 4 6 -7 10 -24 10 -17
0 -31 -4 -31 -10z"/>
</g>
</svg>
